<svg xmlns="http://www.w3.org/2000/svg" xml:space="preserve" viewBox="0 0 88 25">
  <path d="M2.8 18.7c-.8-.3-1.4-.8-1.9-1.4l1.8-2.2c.4.4.8.7 1.3.9.5.2 1 .3 1.5.3.8 0 1.4-.3 1.8-.8.4-.5.8-1.3 1-2.5l1.9-11h3.5l-2 11.4c-.3 1.9-1 3.4-2 4.3s-2.4 1.4-4.2 1.4c-1 .1-1.9-.1-2.7-.4zM14.5 18.2c-.6-.6-.9-1.6-.9-2.8 0-.6.1-1.1.2-1.7L15 6.9h3l-1.2 6.8c-.1.5-.1.9-.1 1.2 0 .6.1 1.1.4 1.4.3.3.7.4 1.2.4.8 0 1.6-.3 2.2-1 .7-.6 1.1-1.4 1.3-2.4L23 6.9h3.1l-1.6 9c-.1.6-.2 1.7-.4 3h-2.9c0-.8.1-1.5.2-2.1-.4.7-1 1.3-1.8 1.7-.8.4-1.6.6-2.5.6-1.1.1-2-.2-2.6-.9zM27.1 18.5c-.8-.4-1.3-1-1.5-1.6l2.2-1.3c.2.4.5.7.9 1 .4.2.8.4 1.3.4.6 0 1.2-.1 1.5-.4.4-.3.6-.6.6-1.1 0-.3-.1-.6-.4-.8s-.7-.5-1.3-.8c-1.2-.5-2-1-2.5-1.6s-.9-1.2-.9-1.9c0-1.1.4-2 1.3-2.7.9-.7 2-1 3.5-1 .9 0 1.8.2 2.5.5.7.4 1.2.8 1.5 1.5l-2 1.3c-.4-.7-1.2-1-2.1-1-.5 0-.9.1-1.2.3-.3.2-.5.5-.5.8 0 .3.1.5.4.7.3.2.8.5 1.7.8 1.1.4 1.8.9 2.3 1.5.5.5.7 1.1.7 1.8 0 .8-.2 1.6-.7 2.3-.5.7-1.1 1.2-1.9 1.5-.8.4-1.8.5-2.8.5-.9 0-1.8-.2-2.6-.7zM38.5 18.4c-.6-.5-.9-1.2-.9-2.2 0-.3 0-.6.1-.9l1.1-6.1h-2.2l.4-2.3h2.2l.5-3.1 3.1-.8h.1l-.7 4h3.5l-.4 2.3h-3.5l-1 5.7v.6c0 .9.5 1.4 1.6 1.4.6 0 1.2-.1 1.8-.3l-.2 2c-.8.3-1.8.5-3 .5-1.1 0-1.9-.3-2.5-.8zM47.9 6.9h3l-2.1 12h-3l2.1-12zm.6-1.8c-.3-.3-.5-.6-.5-1 0-.6.2-1.2.6-1.6.4-.4 1-.6 1.7-.6.5 0 .9.1 1.2.4.3.3.5.7.5 1.1 0 .6-.2 1.2-.6 1.6-.4.4-1 .6-1.7.6-.5-.1-.9-.2-1.2-.5zM52.7 10.1l.1-.6c.2-1.3.3-2.1.3-2.6H56c0 .7-.1 1.4-.2 2.1.4-.7 1-1.3 1.8-1.7.7-.4 1.6-.6 2.5-.6 1.2 0 2 .3 2.6 1 .6.6.9 1.6.9 2.8 0 .6-.1 1.1-.2 1.7l-1.2 6.7h-3l1.2-6.8c.1-.3.1-.7.1-1.1 0-1.3-.6-1.9-1.8-1.9-.8 0-1.6.3-2.2.9-.6.6-1 1.4-1.2 2.3l-1.2 6.6H51l1.7-8.8zM65.8 18.8c-.2-.2-.3-.5-.3-.9s.1-.7.3-.9c.2-.2.5-.3.9-.3s.6.1.9.3.3.5.3.9-.1.6-.3.9c-.2.2-.5.3-.9.3-.4.1-.7 0-.9-.3zM70.4 17.2c0-.2 0-.5.1-.9l2.7-15.1h1.7l-2.6 15c0 .3-.1.5-.1.7 0 .4.1.6.2.8.2.2.4.2.8.2.3 0 .7-.1 1.2-.3l.1 1c-.3.2-.6.3-.9.4-.4.1-.7.1-1.1.1-1.4.1-2.1-.6-2.1-1.9zM87.1 6.9 80.7 19c-.8 1.6-1.8 2.8-2.7 3.6-1 .8-2 1.2-3.2 1.2-.4 0-.8 0-1.1-.1l.2-1.2c.3.1.6.1.9.1.8 0 1.6-.3 2.3-.9.7-.6 1.5-1.7 2.3-3.3L77 6.9h1.8l1.7 9.7 4.8-9.7h1.8z"/>
</svg>